<svg xmlns="http://www.w3.org/2000/svg" width="900" height="420" viewBox="0 0 900 420" font-family="sans-serif">
  <rect width="900" height="420" fill="white"/>
  <text x="450" y="22" font-size="16" text-anchor="middle" fill="#111">Dust-grain preset (P1.36): adaptive step size h(t), log-log (P2.46)</text>
  <line x1="50.60" y1="40" x2="50.60" y2="364" stroke="#e2e2e2" stroke-width="1"/><text x="50.60" y="384" font-size="12" text-anchor="middle" fill="#333">1e-4</text>
  <line x1="255.45" y1="40" x2="255.45" y2="364" stroke="#e2e2e2" stroke-width="1"/><text x="255.45" y="384" font-size="12" text-anchor="middle" fill="#333">1e-3</text>
  <line x1="460.30" y1="40" x2="460.30" y2="364" stroke="#e2e2e2" stroke-width="1"/><text x="460.30" y="384" font-size="12" text-anchor="middle" fill="#333">1e-2</text>
  <line x1="665.15" y1="40" x2="665.15" y2="364" stroke="#e2e2e2" stroke-width="1"/><text x="665.15" y="384" font-size="12" text-anchor="middle" fill="#333">1e-1</text>
  <line x1="870.00" y1="40" x2="870.00" y2="364" stroke="#e2e2e2" stroke-width="1"/><text x="870.00" y="384" font-size="12" text-anchor="middle" fill="#333">1e0</text>
  <line x1="76" y1="385.34" x2="870" y2="385.34" stroke="#e2e2e2" stroke-width="1"/><text x="66" y="389.34" font-size="12" text-anchor="end" fill="#333">1e-4</text>
  <line x1="76" y1="141.19" x2="870" y2="141.19" stroke="#e2e2e2" stroke-width="1"/><text x="66" y="145.19" font-size="12" text-anchor="end" fill="#333">1e-3</text>
  <line x1="76" y1="-102.95" x2="870" y2="-102.95" stroke="#e2e2e2" stroke-width="1"/><text x="66" y="-98.95" font-size="12" text-anchor="end" fill="#333">1e-2</text>
  <rect x="76" y="40" width="794" height="324" fill="none" stroke="#333" stroke-width="1"/>
  <polyline points="76.00,355.07 134.00,364.00 170.93,356.41 196.32,359.36 216.76,355.20 233.27,355.93 247.46,353.72 259.69,353.78 270.55,352.61 280.23,352.49 289.02,351.87 297.02,351.73 304.39,351.39 311.20,351.28 317.53,351.09 323.45,351.00 329.01,350.89 334.24,350.83 339.19,350.76 343.87,350.72 348.32,350.67 352.57,350.63 356.62,350.59 360.49,350.55 364.21,350.50 367.78,350.45 371.21,350.39 374.52,350.32 377.71,350.23 380.79,350.13 383.78,350.00 386.67,349.83 389.47,349.63 392.20,349.39 394.85,349.08 397.44,348.70 399.96,348.24 402.43,347.68 404.84,346.99 407.21,346.16 409.54,345.15 411.84,343.95 414.10,342.53 416.35,340.85 418.58,338.89 420.81,336.63 423.03,334.05 425.25,331.13 427.49,327.85 429.76,324.19 432.04,320.17 434.37,315.75 436.74,310.95 439.16,305.74 441.65,300.13 444.21,294.09 446.85,287.60 449.58,280.65 452.43,273.19 455.39,265.17 458.51,256.56 461.78,247.27 465.25,237.21 468.95,226.29 472.91,214.34 477.19,201.20 481.86,186.62 487.01,170.31 492.78,151.84 499.35,130.68 506.99,106.17 516.06,78.12 526.55,50.91 536.90,40.00 545.57,47.40 552.67,59.27 558.81,66.76 564.45,68.70 569.81,67.62 574.94,65.90 579.85,64.71 584.51,64.32 588.94,64.43 593.15,64.70 597.17,64.90 601.00,64.98 604.68,64.97 608.21,64.93 611.61,64.89 614.89,64.88 618.04,64.88 621.09,64.89 624.04,64.89 626.90,64.89 629.66,64.89 632.34,64.89 634.95,64.89 637.48,64.89 639.93,64.89 642.33,64.89 644.66,64.89 646.93,64.89 649.14,64.89 651.30,64.89 653.41,64.89 655.47,64.89 657.49,64.89 659.46,64.89 661.38,64.89 663.27,64.89 665.12,64.89 666.93,64.89 668.70,64.89 670.44,64.89 672.14,64.89 673.82,64.89 675.46,64.89 677.07,64.89 678.65,64.89 680.21,64.89 681.74,64.89 683.24,64.89 684.72,64.89 686.18,64.89 687.61,64.89 689.02,64.89 690.40,64.89 691.77,64.89 693.11,64.89 694.44,64.89 695.74,64.89 697.03,64.89 698.29,64.89 699.54,64.89 700.78,64.89 701.99,64.89 703.19,64.89 704.38,64.89 705.54,64.89 706.70,64.89 707.83,64.89 708.96,64.89 710.07,64.89 711.16,64.89 712.25,64.89 713.32,64.89 714.37,64.89 715.42,64.89 716.45,64.89 717.47,64.89 718.48,64.89 719.48,64.89 720.46,64.89 721.44,64.89 722.40,64.89 723.36,64.89 724.30,64.89 725.24,64.89 726.16,64.89 727.08,64.89 727.99,64.89 728.88,64.89 729.77,64.89 730.65,64.89 731.52,64.89 732.38,64.89 733.24,64.89 734.08,64.89 734.92,64.89 735.75,64.89 736.57,64.89 737.39,64.89 738.20,64.89 739.00,64.89 739.79,64.89 740.57,64.89 741.35,64.89 742.13,64.89 742.89,64.89 743.65,64.89 744.40,64.89 745.15,64.89 745.89,64.89 746.63,64.89 747.35,64.89 748.08,64.89 748.79,64.89 749.50,64.89 750.21,64.89 750.91,64.89 751.60,64.89 752.29,64.89 752.97,64.89 753.65,64.89 754.32,64.89 754.99,64.89 755.66,64.89 756.31,64.89 756.97,64.89 757.62,64.89 758.26,64.89 758.90,64.89 759.53,64.89 760.16,64.89 760.79,64.89 761.41,64.89 762.03,64.89 762.64,64.89 763.25,64.89 763.85,64.89 764.45,64.89 765.05,64.89 765.64,64.89 766.23,64.89 766.82,64.89 767.40,64.89 767.97,64.89 768.55,64.89 769.12,64.89 769.68,64.89 770.25,64.89 770.80,64.89 771.36,64.89 771.91,64.89 772.46,64.89 773.01,64.89 773.55,64.89 774.09,64.89 774.62,64.89 775.15,64.89 775.68,64.89 776.21,64.89 776.73,64.89 777.25,64.89 777.77,64.89 778.28,64.89 778.79,64.89 779.30,64.89 779.81,64.89 780.31,64.89 780.81,64.89 781.30,64.89 781.80,64.89 782.29,64.89 782.78,64.89 783.26,64.89 783.75,64.89 784.23,64.89 784.70,64.89 785.18,64.89 785.65,64.89 786.12,64.89 786.59,64.89 787.05,64.89 787.52,64.89 787.98,64.89 788.44,64.89 788.89,64.89 789.35,64.89 789.80,64.89 790.25,64.89 790.69,64.89 791.14,64.89 791.58,64.89 792.02,64.89 792.46,64.89 792.89,64.89 793.33,64.89 793.76,64.89 794.19,64.89 794.61,64.89 795.04,64.89 795.46,64.89 795.88,64.89 796.30,64.89 796.72,64.89 797.14,64.89 797.55,64.89 797.96,64.89 798.37,64.89 798.78,64.89 799.19,64.89 799.59,64.89 799.99,64.89 800.39,64.89 800.79,64.89 801.19,64.89 801.58,64.89 801.98,64.89 802.37,64.89 802.76,64.89 803.15,64.89 803.53,64.89 803.92,64.89 804.30,64.89 804.68,64.89 805.06,64.89 805.44,64.89 805.82,64.89 806.19,64.89 806.57,64.89 806.94,64.89 807.31,64.89 807.68,64.89 808.04,64.89 808.41,64.89 808.77,64.89 809.14,64.89 809.50,64.89 809.86,64.89 810.22,64.89 810.57,64.89 810.93,64.89 811.28,64.89 811.64,64.89 811.99,64.89 812.34,64.89 812.69,64.89 813.03,64.89 813.38,64.89 813.72,64.89 814.07,64.89 814.41,64.89 814.75,64.89 815.09,64.89 815.43,64.89 815.76,64.89 816.10,64.89 816.43,64.89 816.77,64.89 817.10,64.89 817.43,64.89 817.76,64.89 818.09,64.89 818.41,64.89 818.74,64.89 819.06,64.89 819.39,64.89 819.71,64.89 820.03,64.89 820.35,64.89 820.67,64.89 820.99,64.89 821.30,64.89 821.62,64.89 821.93,64.89 822.24,64.89 822.56,64.89 822.87,64.89 823.18,64.89 823.49,64.89 823.79,64.89 824.10,64.89 824.41,64.89 824.71,64.89 825.01,64.89 825.32,64.89 825.62,64.89 825.92,64.89 826.22,64.89 826.52,64.89 826.81,64.89 827.11,64.89 827.40,64.89 827.70,64.89 827.99,64.89 828.29,64.89 828.58,64.89 828.87,64.89 829.16,64.89 829.45,64.89 829.73,64.89 830.02,64.89 830.31,64.89 830.59,64.89 830.88,64.89 831.16,64.89 831.44,64.89 831.72,64.89 832.00,64.89 832.28,64.89 832.56,64.89 832.84,64.89 833.12,64.89 833.39,64.89 833.67,64.89 833.94,64.89 834.22,64.89 834.49,64.89 834.76,64.89 835.03,64.89 835.30,64.89 835.57,64.89 835.84,64.89 836.11,64.89 836.37,64.89 836.64,64.89 836.91,64.89 837.17,64.89 837.43,64.89 837.70,64.89 837.96,64.89 838.22,64.89 838.48,64.89 838.74,64.89 839.00,64.89 839.26,64.89 839.52,64.89 839.77,64.89 840.03,64.89 840.29,64.89 840.54,64.89 840.79,64.89 841.05,64.89 841.30,64.89 841.55,64.89 841.80,64.89 842.05,64.89 842.30,64.89 842.55,64.89 842.80,64.89 843.05,64.89 843.30,64.89 843.54,64.89 843.79,64.89 844.03,64.89 844.28,64.89 844.52,64.89 844.76,64.89 845.01,64.89 845.25,64.89 845.49,64.89 845.73,64.89 845.97,64.89 846.21,64.89 846.45,64.89 846.68,64.89 846.92,64.89 847.16,64.89 847.39,64.89 847.63,64.89 847.86,64.89 848.10,64.89 848.33,64.89 848.56,64.89 848.80,64.89 849.03,64.89 849.26,64.89 849.49,64.89 849.72,64.89 849.95,64.89 850.18,64.89 850.40,64.89 850.63,64.89 850.86,64.89 851.09,64.89 851.31,64.89 851.54,64.89 851.76,64.89 851.98,64.89 852.21,64.89 852.43,64.89 852.65,64.89 852.87,64.89 853.10,64.89 853.32,64.89 853.54,64.89 853.76,64.89 853.98,64.89 854.19,64.89 854.41,64.89 854.63,64.89 854.85,64.89 855.06,64.89 855.28,64.89 855.49,64.89 855.71,64.89 855.92,64.89 856.14,64.89 856.35,64.89 856.56,64.89 856.77,64.89 856.99,64.89 857.20,64.89 857.41,64.89 857.62,64.89 857.83,64.89 858.04,64.89 858.25,64.89 858.45,64.89 858.66,64.89 858.87,64.89 859.08,64.89 859.28,64.89 859.49,64.89 859.69,64.89 859.90,64.89 860.10,64.89 860.31,64.89 860.51,64.89 860.71,64.89 860.92,64.89 861.12,64.89 861.32,64.89 861.52,64.89 861.72,64.89 861.92,64.89 862.12,64.89 862.32,64.89 862.52,64.89 862.72,64.89 862.92,64.89 863.12,64.89 863.31,64.89 863.51,64.89 863.71,64.89 863.90,64.89 864.10,64.89 864.29,64.89 864.49,64.89 864.68,64.89 864.87,64.89 865.07,64.89 865.26,64.89 865.45,64.89 865.64,64.89 865.84,64.89 866.03,64.89 866.22,64.89 866.41,64.89 866.60,64.89 866.79,64.89 866.98,64.89 867.17,64.89 867.36,64.89 867.54,64.89 867.73,64.89 867.92,64.89 868.10,64.89 868.29,64.89 868.48,64.89 868.66,64.89 868.85,64.89 869.03,64.89 869.22,64.89 869.40,64.89 869.59,64.89 869.77,64.89 869.95,64.89 870.00,206.70" fill="none" stroke="#2166ac" stroke-width="1.5"/>
  <circle cx="134.00" cy="364.00" r="4" fill="#b2182b"/>
  <text x="144.00" y="356.00" font-size="12" text-anchor="start" fill="#b2182b">min h (still near launch speed)</text>
  <text x="450" y="408" font-size="13" text-anchor="middle" fill="#111">t (s)</text>
  <text x="18" y="210" font-size="13" text-anchor="middle" fill="#111" transform="rotate(-90 18 210)">h (s)</text>
</svg>
